<?xml version="1.0" encoding="UTF-8"?>
<svg xmlns="http://www.w3.org/2000/svg" xmlns:xlink="http://www.w3.org/1999/xlink" width="24px" height="24px" viewBox="0 0 24 24" version="1.1">
<g id="surface1">
<path style=" stroke:none;fill-rule:nonzero;fill:rgb(0%,0%,0%);fill-opacity:1;" d="M 22.984375 19.441406 C 22.972656 19.296875 22.910156 19.164062 22.804688 19.0625 L 13.828125 10.082031 C 14.179688 9.25 14.367188 8.347656 14.367188 7.417969 C 14.367188 5.597656 13.65625 3.882812 12.371094 2.59375 C 11.085938 1.308594 9.375 0.601562 7.550781 0.601562 C 5.730469 0.601562 4.019531 1.308594 2.730469 2.597656 C 0.0742188 5.253906 0.0703125 9.578125 2.730469 12.234375 C 4.019531 13.523438 5.730469 14.234375 7.550781 14.234375 C 8.484375 14.234375 9.382812 14.046875 10.214844 13.691406 L 13.164062 16.644531 C 13.289062 16.765625 13.449219 16.832031 13.625 16.824219 L 15.234375 16.769531 L 15.179688 18.378906 C 15.175781 18.550781 15.238281 18.714844 15.359375 18.835938 C 15.476562 18.957031 15.644531 19.023438 15.816406 19.015625 L 17.429688 18.960938 L 17.371094 20.570312 C 17.363281 20.742188 17.429688 20.90625 17.550781 21.027344 C 17.671875 21.148438 17.816406 21.214844 18.007812 21.207031 L 19.617188 21.152344 L 19.5625 22.761719 C 19.554688 22.941406 19.628906 23.113281 19.757812 23.234375 C 19.875 23.34375 20.023438 23.398438 20.175781 23.398438 C 20.199219 23.398438 20.222656 23.398438 20.246094 23.398438 L 22.710938 23.125 C 23.046875 23.085938 23.289062 22.789062 23.261719 22.453125 Z M 6.726562 6.59375 C 5.96875 7.351562 4.746094 7.351562 3.988281 6.59375 C 3.230469 5.835938 3.230469 4.609375 3.988281 3.855469 C 4.746094 3.097656 5.96875 3.097656 6.726562 3.851562 C 7.484375 4.609375 7.484375 5.835938 6.726562 6.59375 Z M 20.878906 19.644531 C 20.789062 19.734375 20.667969 19.78125 20.550781 19.78125 C 20.433594 19.78125 20.3125 19.734375 20.222656 19.644531 L 12.582031 12.003906 C 12.792969 11.773438 12.988281 11.53125 13.164062 11.277344 L 20.878906 18.992188 C 21.058594 19.171875 21.058594 19.464844 20.878906 19.644531 Z M 20.878906 19.644531 "/>
</g>
</svg>
